<mxfile host="app.diagrams.net" modified="2024-07-03T20:42:41.741Z" agent="Mozilla/5.0 (Windows NT 10.0; Win64; x64) AppleWebKit/537.36 (KHTML, like Gecko) Chrome/124.0.0.0 YaBrowser/24.6.0.0 Safari/537.36" etag="bqzuSxDBkP7j72avvKLq" version="24.6.4" type="device">
  <diagram name="Страница — 1" id="F24csKYNH8XgoZriXr4j">
    <mxGraphModel dx="858" dy="1231" grid="1" gridSize="10" guides="1" tooltips="1" connect="1" arrows="1" fold="1" page="1" pageScale="1" pageWidth="1169" pageHeight="1654" math="0" shadow="0">
      <root>
        <mxCell id="0" />
        <mxCell id="1" parent="0" />
        <mxCell id="YNz2X1oB4Lp2rN8wMl9a-10" value="зарег. пользователь" style="shape=umlActor;verticalLabelPosition=bottom;verticalAlign=top;html=1;outlineConnect=0;" parent="1" vertex="1">
          <mxGeometry x="100" y="470" width="30" height="60" as="geometry" />
        </mxCell>
        <mxCell id="YNz2X1oB4Lp2rN8wMl9a-11" value="Магазин PROдукты" style="swimlane;whiteSpace=wrap;html=1;" parent="1" vertex="1">
          <mxGeometry x="170" y="90" width="860" height="610" as="geometry" />
        </mxCell>
        <mxCell id="YNz2X1oB4Lp2rN8wMl9a-12" value="авторизация" style="ellipse;whiteSpace=wrap;html=1;" parent="YNz2X1oB4Lp2rN8wMl9a-11" vertex="1">
          <mxGeometry x="200" y="440" width="140" height="70" as="geometry" />
        </mxCell>
        <mxCell id="YNz2X1oB4Lp2rN8wMl9a-16" value="регистрация&amp;nbsp;" style="ellipse;whiteSpace=wrap;html=1;" parent="YNz2X1oB4Lp2rN8wMl9a-11" vertex="1">
          <mxGeometry x="100" y="60" width="140" height="70" as="geometry" />
        </mxCell>
        <mxCell id="YNz2X1oB4Lp2rN8wMl9a-17" value="заказать товар" style="ellipse;whiteSpace=wrap;html=1;" parent="YNz2X1oB4Lp2rN8wMl9a-11" vertex="1">
          <mxGeometry x="440" y="250" width="170" height="70" as="geometry" />
        </mxCell>
        <mxCell id="YNz2X1oB4Lp2rN8wMl9a-22" value="просмотр товаров" style="ellipse;whiteSpace=wrap;html=1;" parent="YNz2X1oB4Lp2rN8wMl9a-11" vertex="1">
          <mxGeometry x="260" y="110" width="140" height="70" as="geometry" />
        </mxCell>
        <mxCell id="YNz2X1oB4Lp2rN8wMl9a-23" value="взаимодействие с пользователем" style="ellipse;whiteSpace=wrap;html=1;" parent="YNz2X1oB4Lp2rN8wMl9a-11" vertex="1">
          <mxGeometry x="670" y="70" width="140" height="70" as="geometry" />
        </mxCell>
        <mxCell id="YNz2X1oB4Lp2rN8wMl9a-29" value="просмотр заказанного товара" style="ellipse;whiteSpace=wrap;html=1;" parent="YNz2X1oB4Lp2rN8wMl9a-11" vertex="1">
          <mxGeometry x="280" y="530" width="140" height="70" as="geometry" />
        </mxCell>
        <mxCell id="YNz2X1oB4Lp2rN8wMl9a-36" value="консультация со специалистом" style="ellipse;whiteSpace=wrap;html=1;" parent="YNz2X1oB4Lp2rN8wMl9a-11" vertex="1">
          <mxGeometry x="220" y="240" width="140" height="70" as="geometry" />
        </mxCell>
        <mxCell id="YNz2X1oB4Lp2rN8wMl9a-46" value="редактирование бд" style="ellipse;whiteSpace=wrap;html=1;" parent="YNz2X1oB4Lp2rN8wMl9a-11" vertex="1">
          <mxGeometry x="710" y="240" width="140" height="70" as="geometry" />
        </mxCell>
        <mxCell id="JksPuSXYhH5WZyYUa4Ai-8" value="" style="endArrow=blockThin;dashed=1;html=1;rounded=0;endFill=0;" parent="YNz2X1oB4Lp2rN8wMl9a-11" source="YNz2X1oB4Lp2rN8wMl9a-12" target="YNz2X1oB4Lp2rN8wMl9a-17" edge="1">
          <mxGeometry width="50" height="50" relative="1" as="geometry">
            <mxPoint x="400" y="360" as="sourcePoint" />
            <mxPoint x="150" y="490" as="targetPoint" />
          </mxGeometry>
        </mxCell>
        <mxCell id="JksPuSXYhH5WZyYUa4Ai-18" value="" style="endArrow=blockThin;dashed=1;html=1;rounded=0;exitX=1;exitY=1;exitDx=0;exitDy=0;entryX=0;entryY=0;entryDx=0;entryDy=0;endFill=0;" parent="YNz2X1oB4Lp2rN8wMl9a-11" source="YNz2X1oB4Lp2rN8wMl9a-22" target="YNz2X1oB4Lp2rN8wMl9a-17" edge="1">
          <mxGeometry width="50" height="50" relative="1" as="geometry">
            <mxPoint x="550" y="259" as="sourcePoint" />
            <mxPoint x="426.9286657824723" y="200" as="targetPoint" />
          </mxGeometry>
        </mxCell>
        <mxCell id="JksPuSXYhH5WZyYUa4Ai-19" value="ext" style="text;strokeColor=none;align=center;fillColor=none;html=1;verticalAlign=middle;whiteSpace=wrap;rounded=0;rotation=45;" parent="YNz2X1oB4Lp2rN8wMl9a-11" vertex="1">
          <mxGeometry x="420" y="210" width="60" height="30" as="geometry" />
        </mxCell>
        <mxCell id="YNz2X1oB4Lp2rN8wMl9a-24" value="гость&amp;nbsp;" style="shape=umlActor;verticalLabelPosition=bottom;verticalAlign=top;html=1;outlineConnect=0;" parent="1" vertex="1">
          <mxGeometry x="90" y="250" width="30" height="60" as="geometry" />
        </mxCell>
        <mxCell id="YNz2X1oB4Lp2rN8wMl9a-28" value="сотрудник" style="shape=umlActor;verticalLabelPosition=bottom;verticalAlign=top;html=1;outlineConnect=0;" parent="1" vertex="1">
          <mxGeometry x="1130" y="410" width="30" height="60" as="geometry" />
        </mxCell>
        <mxCell id="YNz2X1oB4Lp2rN8wMl9a-32" value="" style="endArrow=none;html=1;rounded=0;entryX=0.5;entryY=0.5;entryDx=0;entryDy=0;entryPerimeter=0;" parent="1" source="YNz2X1oB4Lp2rN8wMl9a-23" target="YNz2X1oB4Lp2rN8wMl9a-6" edge="1">
          <mxGeometry width="50" height="50" relative="1" as="geometry">
            <mxPoint x="1020" y="186" as="sourcePoint" />
            <mxPoint x="1093" y="224" as="targetPoint" />
          </mxGeometry>
        </mxCell>
        <mxCell id="YNz2X1oB4Lp2rN8wMl9a-34" value="" style="endArrow=none;html=1;rounded=0;entryX=0.4;entryY=0.617;entryDx=0;entryDy=0;entryPerimeter=0;" parent="1" source="YNz2X1oB4Lp2rN8wMl9a-12" target="YNz2X1oB4Lp2rN8wMl9a-6" edge="1">
          <mxGeometry width="50" height="50" relative="1" as="geometry">
            <mxPoint x="930" y="219" as="sourcePoint" />
            <mxPoint x="1125" y="230" as="targetPoint" />
          </mxGeometry>
        </mxCell>
        <mxCell id="YNz2X1oB4Lp2rN8wMl9a-33" value="" style="endArrow=none;html=1;rounded=0;entryX=0;entryY=1;entryDx=0;entryDy=0;entryPerimeter=0;exitX=0.8;exitY=0.1;exitDx=0;exitDy=0;exitPerimeter=0;" parent="1" source="YNz2X1oB4Lp2rN8wMl9a-29" target="YNz2X1oB4Lp2rN8wMl9a-28" edge="1">
          <mxGeometry width="50" height="50" relative="1" as="geometry">
            <mxPoint x="930" y="409" as="sourcePoint" />
            <mxPoint x="1125" y="420" as="targetPoint" />
          </mxGeometry>
        </mxCell>
        <mxCell id="YNz2X1oB4Lp2rN8wMl9a-38" value="" style="endArrow=none;html=1;rounded=0;entryX=0.029;entryY=0.414;entryDx=0;entryDy=0;entryPerimeter=0;exitX=0.5;exitY=0.5;exitDx=0;exitDy=0;exitPerimeter=0;" parent="1" source="YNz2X1oB4Lp2rN8wMl9a-24" target="YNz2X1oB4Lp2rN8wMl9a-16" edge="1">
          <mxGeometry width="50" height="50" relative="1" as="geometry">
            <mxPoint x="140" y="460" as="sourcePoint" />
            <mxPoint x="190" y="410" as="targetPoint" />
          </mxGeometry>
        </mxCell>
        <mxCell id="YNz2X1oB4Lp2rN8wMl9a-39" value="" style="endArrow=none;html=1;rounded=0;entryX=0.029;entryY=0.614;entryDx=0;entryDy=0;entryPerimeter=0;" parent="1" target="YNz2X1oB4Lp2rN8wMl9a-22" edge="1">
          <mxGeometry width="50" height="50" relative="1" as="geometry">
            <mxPoint x="110" y="280" as="sourcePoint" />
            <mxPoint x="360" y="500" as="targetPoint" />
          </mxGeometry>
        </mxCell>
        <mxCell id="YNz2X1oB4Lp2rN8wMl9a-41" value="" style="endArrow=none;html=1;rounded=0;exitX=0.5;exitY=0.5;exitDx=0;exitDy=0;exitPerimeter=0;" parent="1" source="YNz2X1oB4Lp2rN8wMl9a-10" target="YNz2X1oB4Lp2rN8wMl9a-12" edge="1">
          <mxGeometry width="50" height="50" relative="1" as="geometry">
            <mxPoint x="120" y="270" as="sourcePoint" />
            <mxPoint x="170" y="220" as="targetPoint" />
          </mxGeometry>
        </mxCell>
        <mxCell id="YNz2X1oB4Lp2rN8wMl9a-42" value="" style="endArrow=none;html=1;rounded=0;exitX=0.5;exitY=0.5;exitDx=0;exitDy=0;exitPerimeter=0;" parent="1" source="YNz2X1oB4Lp2rN8wMl9a-10" target="YNz2X1oB4Lp2rN8wMl9a-17" edge="1">
          <mxGeometry width="50" height="50" relative="1" as="geometry">
            <mxPoint x="125" y="270" as="sourcePoint" />
            <mxPoint x="352" y="346" as="targetPoint" />
          </mxGeometry>
        </mxCell>
        <mxCell id="YNz2X1oB4Lp2rN8wMl9a-43" value="" style="endArrow=none;html=1;rounded=0;exitX=0.5;exitY=0.5;exitDx=0;exitDy=0;exitPerimeter=0;entryX=0;entryY=1;entryDx=0;entryDy=0;" parent="1" source="YNz2X1oB4Lp2rN8wMl9a-10" target="YNz2X1oB4Lp2rN8wMl9a-22" edge="1">
          <mxGeometry width="50" height="50" relative="1" as="geometry">
            <mxPoint x="135" y="280" as="sourcePoint" />
            <mxPoint x="362" y="356" as="targetPoint" />
          </mxGeometry>
        </mxCell>
        <mxCell id="YNz2X1oB4Lp2rN8wMl9a-44" value="" style="endArrow=none;html=1;rounded=0;entryX=-0.014;entryY=0.314;entryDx=0;entryDy=0;entryPerimeter=0;" parent="1" source="YNz2X1oB4Lp2rN8wMl9a-10" target="YNz2X1oB4Lp2rN8wMl9a-29" edge="1">
          <mxGeometry width="50" height="50" relative="1" as="geometry">
            <mxPoint x="125" y="270" as="sourcePoint" />
            <mxPoint x="407" y="241" as="targetPoint" />
          </mxGeometry>
        </mxCell>
        <mxCell id="YNz2X1oB4Lp2rN8wMl9a-45" value="" style="endArrow=none;html=1;rounded=0;entryX=0;entryY=0.5;entryDx=0;entryDy=0;" parent="1" source="YNz2X1oB4Lp2rN8wMl9a-10" target="YNz2X1oB4Lp2rN8wMl9a-36" edge="1">
          <mxGeometry width="50" height="50" relative="1" as="geometry">
            <mxPoint x="125" y="270" as="sourcePoint" />
            <mxPoint x="407" y="241" as="targetPoint" />
          </mxGeometry>
        </mxCell>
        <mxCell id="YNz2X1oB4Lp2rN8wMl9a-47" value="" style="endArrow=none;html=1;rounded=0;entryX=0.5;entryY=0.5;entryDx=0;entryDy=0;entryPerimeter=0;" parent="1" source="YNz2X1oB4Lp2rN8wMl9a-6" edge="1">
          <mxGeometry width="50" height="50" relative="1" as="geometry">
            <mxPoint x="934" y="271" as="sourcePoint" />
            <mxPoint x="1125" y="230" as="targetPoint" />
          </mxGeometry>
        </mxCell>
        <mxCell id="YNz2X1oB4Lp2rN8wMl9a-40" value="" style="endArrow=none;html=1;rounded=0;entryX=0;entryY=0.5;entryDx=0;entryDy=0;" parent="1" source="YNz2X1oB4Lp2rN8wMl9a-24" target="YNz2X1oB4Lp2rN8wMl9a-36" edge="1">
          <mxGeometry width="50" height="50" relative="1" as="geometry">
            <mxPoint x="120" y="420" as="sourcePoint" />
            <mxPoint x="384" y="243" as="targetPoint" />
          </mxGeometry>
        </mxCell>
        <mxCell id="JksPuSXYhH5WZyYUa4Ai-3" value="" style="endArrow=none;html=1;rounded=0;exitX=0.721;exitY=0.061;exitDx=0;exitDy=0;exitPerimeter=0;" parent="1" source="YNz2X1oB4Lp2rN8wMl9a-29" edge="1">
          <mxGeometry width="50" height="50" relative="1" as="geometry">
            <mxPoint x="770" y="530" as="sourcePoint" />
            <mxPoint x="1140" y="430" as="targetPoint" />
          </mxGeometry>
        </mxCell>
        <mxCell id="JksPuSXYhH5WZyYUa4Ai-7" value="" style="endArrow=none;html=1;rounded=0;" parent="1" source="YNz2X1oB4Lp2rN8wMl9a-46" target="YNz2X1oB4Lp2rN8wMl9a-6" edge="1">
          <mxGeometry width="50" height="50" relative="1" as="geometry">
            <mxPoint x="1009" y="316" as="sourcePoint" />
            <mxPoint x="1125" y="230" as="targetPoint" />
          </mxGeometry>
        </mxCell>
        <mxCell id="YNz2X1oB4Lp2rN8wMl9a-6" value="администратор" style="shape=umlActor;verticalLabelPosition=bottom;verticalAlign=top;html=1;outlineConnect=0;" parent="1" vertex="1">
          <mxGeometry x="1110" y="200" width="30" height="60" as="geometry" />
        </mxCell>
        <mxCell id="JksPuSXYhH5WZyYUa4Ai-9" value="include" style="text;strokeColor=none;align=center;fillColor=none;html=1;verticalAlign=middle;whiteSpace=wrap;rounded=0;rotation=-30;" parent="1" vertex="1">
          <mxGeometry x="490" y="480" width="60" height="30" as="geometry" />
        </mxCell>
      </root>
    </mxGraphModel>
  </diagram>
</mxfile>
